<?xml version="1.0" encoding="utf-8"?>
<!-- Generator: Adobe Illustrator 19.2.1, SVG Export Plug-In . SVG Version: 6.00 Build 0)  -->
<svg version="1.1" id="レイヤー_1" xmlns="http://www.w3.org/2000/svg" xmlns:xlink="http://www.w3.org/1999/xlink" x="0px"
	 y="0px" viewBox="0 0 223.215 24.124" enable-background="new 0 0 223.215 24.124" xml:space="preserve">
<g>
	<g>
		<path fill="#435B5B" d="M37.128,22.461c-2.078-0.004-3.708-0.917-4.89-2.742c-1.182-1.824-1.77-4.496-1.764-8.015
			c0.005-3.481,0.602-6.119,1.79-7.913c1.188-1.793,2.821-2.689,4.899-2.686c2.06,0.004,3.685,0.908,4.876,2.715
			c1.191,1.807,1.784,4.442,1.778,7.906c-0.006,3.5-0.607,6.164-1.804,7.994C40.816,21.551,39.187,22.465,37.128,22.461z
			 M34.51,17.946c0.636,1.313,1.509,1.971,2.622,1.973c1.112,0.002,1.988-0.652,2.628-1.965c0.64-1.311,0.962-3.389,0.967-6.232
			c0.009-5.377-1.181-8.068-3.569-8.072c-2.388-0.004-3.586,2.684-3.595,8.061C33.558,14.553,33.874,16.631,34.51,17.946z"/>
		<path fill="#435B5B" d="M54.496,22.49c-1.933-0.003-3.536-0.521-4.81-1.553c-1.275-1.032-1.91-2.341-1.908-3.927
			c0.002-1.258,0.346-2.352,1.031-3.279c0.685-0.929,1.557-1.674,2.615-2.238c0.036-0.018,0.055-0.05,0.055-0.096
			c0-0.045-0.019-0.086-0.055-0.123c-1.802-1.297-2.702-2.885-2.699-4.762c0.003-1.604,0.556-2.893,1.661-3.867
			c1.104-0.973,2.513-1.459,4.227-1.455c1.768,0.002,3.18,0.506,4.236,1.51c1.056,1.005,1.582,2.327,1.58,3.968
			c-0.001,0.948-0.263,1.845-0.784,2.692c-0.521,0.847-1.146,1.543-1.876,2.088c-0.037,0.037-0.055,0.078-0.055,0.123
			c0,0.047,0.018,0.078,0.055,0.096c2.276,1.336,3.413,3.15,3.409,5.447c-0.002,1.551-0.625,2.834-1.866,3.853
			C58.07,21.985,56.465,22.493,54.496,22.49z M54.555,20.167c1.057,0.001,1.915-0.285,2.572-0.857
			c0.657-0.574,0.986-1.334,0.988-2.282c0.001-0.492-0.09-0.938-0.271-1.341c-0.182-0.4-0.396-0.738-0.641-1.012
			s-0.61-0.553-1.092-0.836c-0.483-0.283-0.916-0.512-1.298-0.686s-0.911-0.407-1.585-0.7c-0.037-0.019-0.082-0.027-0.137-0.027
			c-0.073-0.001-0.137,0.026-0.191,0.081c-0.694,0.51-1.242,1.125-1.644,1.844c-0.402,0.719-0.604,1.498-0.605,2.336
			c-0.001,1.021,0.371,1.856,1.117,2.504C52.513,19.839,53.443,20.165,54.555,20.167z M55.664,10.597
			c0.127,0.056,0.236,0.037,0.328-0.054c1.15-1.11,1.727-2.34,1.729-3.689c0.001-0.984-0.28-1.786-0.844-2.407
			c-0.564-0.62-1.338-0.932-2.323-0.934c-0.857-0.001-1.564,0.271-2.121,0.817c-0.557,0.546-0.836,1.275-0.837,2.186
			c-0.001,0.984,0.348,1.783,1.049,2.395C53.346,9.522,54.352,10.084,55.664,10.597z"/>
		<path fill="#435B5B" d="M77.284,2.511c0.309,0.22,0.464,0.539,0.463,0.958c-0.001,0.347-0.12,0.646-0.357,0.902
			c-0.219,0.254-0.52,0.381-0.903,0.381c-0.019,0-0.037,0-0.055,0c-0.347-0.001-0.656-0.092-0.929-0.275
			c-0.71-0.457-1.448-0.686-2.214-0.688c-1.422-0.002-2.581,0.603-3.476,1.813c-0.896,1.211-1.391,3.156-1.486,5.836
			c0,0.037,0.014,0.064,0.041,0.082c0.027,0.02,0.059,0.01,0.096-0.027c0.584-0.673,1.273-1.209,2.067-1.609s1.555-0.6,2.284-0.598
			c1.786,0.002,3.198,0.557,4.236,1.661c1.037,1.104,1.554,2.724,1.55,4.856c-0.003,1.986-0.603,3.604-1.799,4.85
			c-1.196,1.248-2.66,1.869-4.392,1.866c-2.078-0.003-3.781-0.881-5.109-2.634c-1.329-1.752-1.989-4.296-1.984-7.632
			c0.003-1.914,0.22-3.604,0.651-5.071c0.431-1.467,1.016-2.627,1.756-3.483c0.74-0.854,1.561-1.491,2.464-1.909
			s1.883-0.627,2.94-0.625C74.697,1.167,76.083,1.616,77.284,2.511z M72.388,20.058c0.93,0.001,1.696-0.384,2.299-1.158
			c0.603-0.773,0.905-1.808,0.907-3.103c0.002-1.348-0.283-2.379-0.856-3.091c-0.573-0.712-1.416-1.069-2.528-1.071
			c-1.386-0.002-2.626,0.744-3.722,2.236c-0.074,0.109-0.101,0.229-0.083,0.355c0.161,1.951,0.586,3.41,1.278,4.377
			C70.375,19.572,71.276,20.056,72.388,20.058z"/>
		<path fill="#435B5B" d="M83.695,15.456c-0.328,0-0.611-0.115-0.847-0.344c-0.237-0.228-0.355-0.506-0.354-0.834
			c0.001-0.328,0.119-0.61,0.357-0.848c0.237-0.236,0.52-0.354,0.848-0.354l5.004,0.008c0.328,0.001,0.606,0.12,0.833,0.357
			c0.227,0.237,0.341,0.52,0.34,0.848c0,0.328-0.115,0.606-0.343,0.834c-0.229,0.228-0.506,0.341-0.834,0.34L83.695,15.456z"/>
		<path fill="#435B5B" d="M94.709,22.2c-0.255,0-0.474-0.092-0.656-0.274c-0.182-0.183-0.273-0.401-0.272-0.657
			c0.001-0.619,0.239-1.139,0.713-1.557c2.884-2.602,5.026-4.877,6.423-6.826c1.398-1.947,2.098-3.724,2.101-5.328
			c0.002-1.148-0.302-2.064-0.912-2.75c-0.61-0.684-1.47-1.027-2.582-1.029c-1.076-0.002-2.134,0.461-3.174,1.39
			c-0.256,0.237-0.557,0.354-0.903,0.354H95.42c-0.328-0.001-0.62-0.119-0.875-0.357c-0.255-0.256-0.382-0.557-0.381-0.902
			c0-0.347,0.128-0.639,0.384-0.875c1.588-1.455,3.375-2.182,5.363-2.179c1.896,0.003,3.408,0.571,4.537,1.702
			c1.128,1.133,1.691,2.629,1.688,4.488c-0.003,1.859-0.654,3.781-1.951,5.766c-1.297,1.985-3.115,4.105-5.452,6.362
			c-0.037,0.019-0.046,0.041-0.027,0.068c0.018,0.027,0.045,0.041,0.082,0.041c1.167-0.107,2.215-0.16,3.145-0.159l3.773,0.006
			c0.383,0.002,0.706,0.135,0.97,0.398c0.264,0.266,0.396,0.589,0.395,0.972c-0.001,0.383-0.134,0.706-0.398,0.97
			c-0.265,0.265-0.588,0.396-0.971,0.395L94.709,22.2z"/>
		<path fill="#435B5B" d="M123.348,2.586c0.309,0.219,0.464,0.539,0.463,0.958c-0.001,0.347-0.12,0.647-0.357,0.901
			c-0.219,0.256-0.52,0.383-0.903,0.381c-0.019,0-0.037,0-0.055,0c-0.347,0-0.656-0.092-0.929-0.274
			c-0.71-0.456-1.448-0.687-2.214-0.687c-1.422-0.003-2.581,0.602-3.476,1.813c-0.896,1.211-1.391,3.156-1.486,5.835
			c0,0.036,0.014,0.063,0.041,0.082s0.059,0.01,0.096-0.026c0.584-0.674,1.273-1.211,2.067-1.61s1.555-0.599,2.284-0.599
			c1.786,0.004,3.198,0.558,4.236,1.662c1.037,1.104,1.554,2.723,1.55,4.855c-0.003,1.988-0.603,3.604-1.799,4.852
			c-1.196,1.246-2.66,1.868-4.392,1.865c-2.078-0.004-3.781-0.881-5.109-2.633c-1.329-1.753-1.989-4.297-1.984-7.633
			c0.003-1.914,0.22-3.604,0.651-5.071c0.431-1.466,1.016-2.628,1.756-3.483s1.561-1.492,2.464-1.91s1.883-0.625,2.94-0.624
			C120.761,1.243,122.146,1.692,123.348,2.586z M118.452,20.133c0.93,0.002,1.696-0.385,2.299-1.158s0.905-1.808,0.907-3.102
			c0.002-1.35-0.283-2.38-0.856-3.092c-0.573-0.712-1.416-1.068-2.528-1.07c-1.386-0.002-2.626,0.742-3.722,2.236
			c-0.074,0.109-0.101,0.227-0.083,0.355c0.161,1.95,0.586,3.409,1.278,4.377C116.438,19.647,117.34,20.131,118.452,20.133z"/>
		<path fill="#435B5B" d="M129.391,22.256c-0.255,0-0.474-0.092-0.656-0.274c-0.182-0.183-0.273-0.401-0.272-0.657
			c0.001-0.619,0.239-1.139,0.713-1.557c2.884-2.602,5.026-4.877,6.423-6.826c1.398-1.947,2.098-3.724,2.101-5.328
			c0.002-1.148-0.302-2.064-0.912-2.75c-0.61-0.684-1.47-1.027-2.582-1.029c-1.076-0.002-2.134,0.461-3.174,1.39
			c-0.256,0.237-0.557,0.354-0.903,0.354h-0.027c-0.328-0.001-0.62-0.119-0.875-0.357c-0.255-0.256-0.382-0.557-0.381-0.903
			s0.128-0.638,0.384-0.874c1.588-1.455,3.375-2.182,5.363-2.179c1.896,0.003,3.408,0.571,4.537,1.702
			c1.128,1.133,1.691,2.628,1.688,4.487c-0.003,1.859-0.654,3.782-1.951,5.767c-1.297,1.985-3.115,4.105-5.452,6.362
			c-0.037,0.019-0.046,0.041-0.027,0.068c0.018,0.027,0.045,0.041,0.082,0.041c1.167-0.107,2.215-0.161,3.145-0.159l3.773,0.006
			c0.383,0.001,0.706,0.134,0.97,0.398c0.264,0.266,0.396,0.589,0.395,0.972c-0.001,0.383-0.134,0.706-0.398,0.97
			s-0.588,0.396-0.971,0.395L129.391,22.256z"/>
		<path fill="#435B5B" d="M147.099,15.559c-0.328-0.001-0.611-0.115-0.847-0.344c-0.237-0.228-0.355-0.506-0.354-0.834
			c0.001-0.328,0.119-0.61,0.357-0.848c0.237-0.236,0.52-0.354,0.848-0.354l5.004,0.008c0.328,0,0.606,0.119,0.833,0.357
			c0.227,0.237,0.341,0.52,0.34,0.848c0,0.328-0.115,0.606-0.343,0.834c-0.229,0.227-0.506,0.34-0.834,0.34L147.099,15.559z"/>
		<path fill="#435B5B" d="M169.411,2.662c0.309,0.22,0.464,0.538,0.463,0.958c-0.001,0.346-0.12,0.646-0.357,0.901
			c-0.219,0.255-0.52,0.382-0.903,0.382c-0.019,0-0.037,0-0.055,0c-0.347-0.001-0.656-0.092-0.929-0.275
			c-0.71-0.457-1.448-0.686-2.214-0.688c-1.422-0.002-2.581,0.603-3.476,1.813c-0.896,1.211-1.391,3.156-1.486,5.836
			c0,0.037,0.014,0.064,0.041,0.082c0.027,0.019,0.059,0.01,0.096-0.027c0.584-0.674,1.273-1.209,2.067-1.609s1.555-0.6,2.284-0.598
			c1.786,0.002,3.198,0.557,4.236,1.66c1.037,1.105,1.554,2.724,1.55,4.856c-0.003,1.987-0.603,3.604-1.799,4.851
			c-1.196,1.247-2.66,1.869-4.392,1.866c-2.078-0.003-3.781-0.882-5.109-2.634c-1.329-1.752-1.989-4.296-1.984-7.632
			c0.003-1.914,0.22-3.604,0.651-5.071c0.431-1.467,1.016-2.628,1.756-3.483s1.561-1.492,2.464-1.91
			c0.903-0.417,1.883-0.626,2.94-0.624C166.824,1.317,168.21,1.766,169.411,2.662z M164.515,20.209
			c0.93,0.001,1.696-0.385,2.299-1.159c0.603-0.773,0.905-1.807,0.907-3.102c0.002-1.349-0.283-2.379-0.856-3.092
			c-0.573-0.711-1.416-1.068-2.528-1.07c-1.386-0.002-2.626,0.744-3.722,2.236c-0.074,0.109-0.101,0.229-0.083,0.355
			c0.161,1.951,0.586,3.41,1.278,4.377C162.502,19.722,163.403,20.207,164.515,20.209z"/>
		<path fill="#435B5B" d="M177.041,22.334c-0.365-0.001-0.679-0.129-0.943-0.385c-0.264-0.256-0.396-0.57-0.395-0.943
			c0.001-0.374,0.133-0.688,0.398-0.943c0.264-0.254,0.579-0.382,0.944-0.381l2.953,0.004c0.146,0.001,0.219-0.072,0.219-0.218
			L180.24,5.55c0-0.146-0.073-0.219-0.218-0.22l-2.461-0.004c-0.273,0-0.511-0.096-0.71-0.287c-0.201-0.192-0.3-0.434-0.3-0.726
			s0.092-0.552,0.275-0.778c0.183-0.229,0.419-0.378,0.711-0.451c0.93-0.217,1.732-0.479,2.408-0.789
			c0.857-0.381,1.623-0.571,2.298-0.57c0.346,0.001,0.637,0.12,0.875,0.357c0.236,0.237,0.354,0.529,0.354,0.875l-0.027,16.516
			c0,0.146,0.063,0.219,0.191,0.219l2.516,0.005c0.364,0.001,0.674,0.129,0.929,0.384c0.254,0.256,0.382,0.57,0.381,0.944
			c0,0.374-0.129,0.688-0.384,0.942c-0.256,0.256-0.566,0.383-0.93,0.382L177.041,22.334z"/>
		<path fill="#435B5B" d="M198.128,22.724c-2.206-0.004-4.119-0.636-5.739-1.896c-0.292-0.22-0.455-0.521-0.491-0.904
			c-0.019-0.035-0.027-0.082-0.027-0.137c0-0.309,0.101-0.592,0.302-0.847c0.201-0.272,0.475-0.427,0.821-0.464
			c0.036,0,0.082,0,0.137,0c0.292,0.001,0.556,0.093,0.792,0.275c1.165,0.896,2.44,1.344,3.826,1.346
			c1.185,0.002,2.165-0.393,2.941-1.185c0.775-0.792,1.165-1.862,1.167-3.211c0.002-1.349-0.352-2.401-1.061-3.159
			c-0.71-0.758-1.666-1.139-2.869-1.141c-0.857-0.001-1.687,0.226-2.49,0.68c-0.273,0.146-0.538,0.219-0.793,0.218
			c-0.273-0.001-0.538-0.083-0.793-0.247c-0.528-0.348-0.773-0.84-0.736-1.479l0.477-7.217c0.019-0.456,0.197-0.839,0.535-1.148
			c0.337-0.309,0.734-0.463,1.19-0.463l7.465,0.012c0.364,0.001,0.683,0.135,0.957,0.398c0.273,0.266,0.409,0.589,0.408,0.972
			c0,0.383-0.138,0.706-0.412,0.97c-0.274,0.265-0.593,0.396-0.958,0.395l-6.098-0.01c-0.128,0-0.201,0.064-0.219,0.191
			l-0.445,4.895c0,0.036,0.018,0.068,0.054,0.096s0.073,0.031,0.109,0.014c0.876-0.418,1.76-0.627,2.654-0.625
			c1.841,0.003,3.344,0.557,4.509,1.662c1.165,1.104,1.746,2.732,1.742,4.883c-0.002,1.477-0.333,2.767-0.991,3.868
			c-0.658,1.103-1.507,1.921-2.547,2.456C200.507,22.459,199.367,22.726,198.128,22.724z"/>
		<path fill="#435B5B" d="M215.961,22.752c-2.078-0.003-3.708-0.916-4.89-2.742c-1.182-1.824-1.77-4.496-1.764-8.014
			c0.005-3.482,0.602-6.119,1.79-7.914c1.188-1.793,2.821-2.688,4.899-2.686c2.06,0.004,3.685,0.909,4.876,2.716
			c1.191,1.807,1.784,4.442,1.778,7.905c-0.006,3.5-0.607,6.165-1.804,7.995C219.649,21.843,218.021,22.756,215.961,22.752z
			 M213.343,18.237c0.636,1.314,1.509,1.972,2.622,1.973c1.112,0.002,1.988-0.652,2.628-1.964c0.64-1.312,0.962-3.39,0.967-6.233
			c0.009-5.377-1.181-8.068-3.569-8.072c-2.388-0.004-3.586,2.684-3.595,8.061C212.392,14.844,212.707,16.923,213.343,18.237z"/>
	</g>
	<g>
		<path fill="#435B5B" d="M20.801,20.801c-0.306,0.711-1.12,1.174-1.773,1.535c-0.857,0.463-1.729,0.737-2.701,0.736
			c-1.349-0.003-2.567-0.556-3.8-1.008c-0.885-0.32-1.74-0.714-2.538-1.208c-2.464-1.528-5.434-4.508-6.954-6.977
			c-0.492-0.8-0.883-1.656-1.2-2.542c-0.448-1.234-0.998-2.454-0.995-3.804C0.842,6.562,1.12,5.692,1.586,4.837
			c0.364-0.652,0.83-1.465,1.541-1.769c0.479-0.217,1.495-0.447,2.018-0.446c0.102,0,0.203,0,0.305,0.044
			C5.754,2.769,6.071,3.48,6.216,3.771c0.463,0.828,0.912,1.67,1.389,2.483c0.231,0.378,0.666,0.843,0.666,1.293
			c-0.001,0.885-2.63,2.172-2.631,2.955c0,0.393,0.361,0.9,0.564,1.249c1.461,2.644,3.287,4.475,5.925,5.945
			c0.348,0.203,0.855,0.567,1.247,0.567c0.784,0.002,2.079-2.623,2.964-2.621c0.45,0,0.914,0.437,1.291,0.669
			c0.812,0.48,1.653,0.932,2.479,1.397c0.291,0.146,1,0.466,1.102,0.771c0.043,0.102,0.043,0.203,0.043,0.305
			C21.254,19.307,21.019,20.323,20.801,20.801z"/>
	</g>
</g>
</svg>
